<?xml version="1.0" encoding="UTF-8"?>
<svg width="32" height="32" viewBox="0 0 32 32" fill="none" xmlns="http://www.w3.org/2000/svg">
  <rect width="32" height="32" fill="#0F172A"/>
  <g transform="translate(8, 8) scale(0.5)">
    <path d="M16 4a8 8 0 0 1 7.94 7H24a7 7 0 0 1 2.95 13.5 8.9 8.9 0 0 1-2.95 2.5h-7a8.9 8.9 0 0 1-2.95-2.5A7 7 0 0 1 17 11h0.06A8 8 0 0 1 16 4Z" stroke="#ffffff" stroke-width="2" stroke-linecap="round" stroke-linejoin="round"/>
    <path d="M16 4a8 8 0 0 0-7.94 7H8a7 7 0 0 0-2.95 13.5A8.9 8.9 0 0 0 8 27h7" stroke="#ffffff" stroke-width="2" stroke-linecap="round" stroke-linejoin="round"/>
  </g>
</svg> 