<?xml version="1.0" encoding="UTF-8"?>
<svg width="1200" height="630" viewBox="0 0 1200 630" fill="none" xmlns="http://www.w3.org/2000/svg">
  <rect width="1200" height="630" fill="#0F172A"/>
  <g transform="translate(60, 60)">
    <path d="M237.5 50a112.5 112.5 0 0 1 111.75 100H350a100 100 0 0 1 41.6 191A125.25 125.25 0 0 1 350 525h-100a125.25 125.25 0 0 1-41.6-191A100 100 0 0 1 250 150h0.75A112.5 112.5 0 0 1 237.5 50Z" stroke="#ffffff" stroke-width="24" stroke-linecap="round" stroke-linejoin="round"/>
    <path d="M237.5 50a112.5 112.5 0 0 0-111.75 100H125a100 100 0 0 0-41.6 191A125.25 125.25 0 0 0 125 525h100" stroke="#ffffff" stroke-width="24" stroke-linecap="round" stroke-linejoin="round"/>
  </g>
  <text x="450" y="200" fill="white" font-family="Inter, system-ui" font-size="72" font-weight="bold">ThinkTact</text>
  <text x="450" y="300" fill="white" font-family="Inter, system-ui" font-size="36" font-weight="normal">Master the Art of Logical Reasoning</text>
  <text x="450" y="400" fill="#94A3B8" font-family="Inter, system-ui" font-size="24" font-weight="normal">AI-Powered Argument Analysis • Fallacy Detection • Reasoning Enhancement</text>
</svg> 